<svg width="24" height="24" viewBox="0 0 24 24" fill="none" xmlns="http://www.w3.org/2000/svg">
<g id="fluent:hand-wave-24-filled">
<path id="Vector" d="M7.94003 2.65999C7.89813 2.53302 7.83119 2.41575 7.74317 2.3151C7.65516 2.21445 7.54785 2.13248 7.42761 2.07402C7.30736 2.01557 7.17661 1.98182 7.04309 1.97478C6.90958 1.96773 6.776 1.98754 6.65027 2.03301C6.52454 2.07849 6.40921 2.14872 6.31109 2.23954C6.21298 2.33037 6.13407 2.43995 6.07904 2.5618C6.02401 2.68366 5.99397 2.81531 5.99071 2.94897C5.98744 3.08263 6.01101 3.21559 6.06003 3.33999L8.31003 9.57299C8.36971 9.74095 8.36105 9.92563 8.28591 10.0873C8.21078 10.2489 8.07518 10.3746 7.90831 10.4372C7.74144 10.4999 7.55663 10.4945 7.39368 10.4223C7.23072 10.3501 7.10265 10.2167 7.03703 10.051L4.93203 4.63799C4.88443 4.51559 4.81318 4.40378 4.72236 4.30892C4.63155 4.21406 4.52293 4.13802 4.40273 4.08514C4.28252 4.03225 4.15308 4.00356 4.02179 4.00071C3.89049 3.99785 3.75992 4.02088 3.63753 4.06849C3.39035 4.16463 3.19148 4.35502 3.08468 4.59779C3.0318 4.71799 3.00311 4.84744 3.00025 4.97873C2.99739 5.11002 3.02043 5.24059 3.06803 5.36299L6.22703 13.485C4.52503 13.301 3.31003 13.735 2.57703 14.153C2.37903 14.263 2.21903 14.4305 2.11816 14.6333C2.01729 14.8361 1.98029 15.0647 2.01203 15.289C2.07103 15.706 2.35103 16.056 2.73903 16.226C4.07503 16.811 7.12503 18.314 9.73703 20.806C10.763 21.784 12.259 22.277 13.7 21.846L16.499 21.008C17.329 20.759 18.023 20.122 18.274 19.246C18.574 18.199 19 16.426 19 14.75C19 13.6 18.597 12.165 18.23 11.08C17.502 8.93499 16.688 6.81499 15.945 4.67299C15.8582 4.42236 15.6753 4.2165 15.4367 4.10069C15.198 3.98489 14.9232 3.96863 14.6725 4.05549C14.4219 4.14235 14.216 4.32521 14.1002 4.56385C13.9844 4.80249 13.9682 5.07736 14.055 5.32799L15.049 8.19199C15.1108 8.36743 15.1004 8.56023 15.02 8.72798C14.9397 8.89573 14.796 9.02469 14.6205 9.08649C14.4451 9.14828 14.2523 9.13785 14.0845 9.05749C13.9168 8.97713 13.7878 8.83343 13.726 8.65799L11.942 3.66399C11.8493 3.41896 11.6641 3.22011 11.4262 3.11021C11.1884 3.00032 10.9169 2.98815 10.6702 3.07633C10.4235 3.1645 10.2213 3.34598 10.107 3.58173C9.99267 3.81749 9.97545 4.08868 10.059 4.33699L11.677 8.86699C11.7355 9.04132 11.7233 9.23162 11.6431 9.39709C11.563 9.56256 11.4211 9.69002 11.2481 9.75216C11.075 9.81429 10.8845 9.80615 10.7174 9.72947C10.5502 9.6528 10.4198 9.5137 10.354 9.34199L7.94003 2.65999ZM18.634 2.32299C18.6902 2.242 18.7617 2.17287 18.8445 2.11954C18.9274 2.06621 19.0199 2.02973 19.1169 2.01218C19.2138 1.99463 19.3133 1.99635 19.4096 2.01725C19.5059 2.03815 19.5971 2.07782 19.678 2.13399C20.486 2.69499 21.156 3.67799 21.576 4.76099C22 5.85499 22.206 7.14499 21.989 8.37999C21.9546 8.57598 21.8436 8.75025 21.6807 8.86446C21.5177 8.97867 21.316 9.02347 21.12 8.98899C20.924 8.95451 20.7498 8.84358 20.6356 8.68061C20.5213 8.51765 20.4766 8.31598 20.511 8.11999C20.671 7.20799 20.524 6.19699 20.177 5.30299C19.827 4.39699 19.308 3.70299 18.822 3.36599C18.6589 3.2525 18.5475 3.07893 18.5123 2.88338C18.477 2.68783 18.5208 2.48628 18.634 2.32299ZM18.299 4.23899C18.1634 4.09325 17.9754 4.00737 17.7764 4.00025C17.5774 3.99312 17.3838 4.06533 17.238 4.20099C17.0923 4.33665 17.0064 4.52464 16.9993 4.72362C16.9922 4.92259 17.0644 5.11625 17.2 5.26199C17.618 5.70999 17.999 6.25199 17.999 7.24999C17.999 7.4489 18.078 7.63966 18.2187 7.78032C18.3594 7.92097 18.5501 7.99999 18.749 7.99999C18.9479 7.99999 19.1387 7.92097 19.2794 7.78032C19.42 7.63966 19.499 7.4489 19.499 7.24999C19.499 5.74999 18.877 4.85999 18.299 4.23899Z" fill="#4574D0"/>
</g>
</svg>
